<?xml version="1.0" encoding="UTF-8" standalone="no"?>
<!DOCTYPE svg PUBLIC "-//W3C//DTD SVG 1.1//EN"
 "http://www.w3.org/Graphics/SVG/1.1/DTD/svg11.dtd">
<!-- Generated by graphviz version 3.0.0 (0)
 -->
<!-- Title: G Pages: 1 -->
<svg width="927pt" height="343pt"
 viewBox="0.00 0.00 927.00 342.98" xmlns="http://www.w3.org/2000/svg" xmlns:xlink="http://www.w3.org/1999/xlink">
<g id="graph0" class="graph" transform="scale(1 1) rotate(0) translate(4 338.98)">
<title>G</title><style>.edge>path:hover{stroke-width:8}</style>
<polygon fill="white" stroke="transparent" points="-4,4 -4,-338.98 923,-338.98 923,4 -4,4"/>
<g id="clust1" class="cluster">
<title>cluster_controlfunctions</title><style>.edge>path:hover{stroke-width:8}</style>
<polygon fill="none" stroke="black" points="269,-112.98 269,-187.98 403,-187.98 403,-112.98 269,-112.98"/>
<text text-anchor="middle" x="336" y="-120.78" font-family="Times,serif" font-size="14.00">controlfunctions</text>
</g>
<g id="clust2" class="cluster">
<title>cluster_cv2</title><style>.edge>path:hover{stroke-width:8}</style>
<polygon fill="none" stroke="black" points="8,-18.99 8,-93.99 78,-93.99 78,-18.99 8,-18.99"/>
<text text-anchor="middle" x="43" y="-26.79" font-family="Times,serif" font-size="14.00">cv2</text>
</g>
<g id="clust3" class="cluster">
<title>cluster_getchipimg</title><style>.edge>path:hover{stroke-width:8}</style>
<polygon fill="none" stroke="black" points="558,-195.98 558,-270.98 670,-270.98 670,-195.98 558,-195.98"/>
<text text-anchor="middle" x="614" y="-203.78" font-family="Times,serif" font-size="14.00">getchipimg</text>
</g>
<g id="clust4" class="cluster">
<title>cluster_helperscripts</title><style>.edge>path:hover{stroke-width:8}</style>
<polygon fill="none" stroke="black" points="480,-112.98 480,-187.98 591,-187.98 591,-112.98 480,-112.98"/>
<text text-anchor="middle" x="535.5" y="-120.78" font-family="Times,serif" font-size="14.00">helperscripts</text>
</g>
<g id="clust5" class="cluster">
<title>cluster_loopfunctions</title><style>.edge>path:hover{stroke-width:8}</style>
<polygon fill="none" stroke="black" points="398,-195.98 398,-270.98 518,-270.98 518,-195.98 398,-195.98"/>
<text text-anchor="middle" x="458" y="-203.78" font-family="Times,serif" font-size="14.00">loopfunctions</text>
</g>
<g id="clust6" class="cluster">
<title>cluster_machinelearning</title><style>.edge>path:hover{stroke-width:8}</style>
<polygon fill="none" stroke="black" points="86,-8 86,-104.98 733,-104.98 733,-8 86,-8"/>
<text text-anchor="middle" x="409.5" y="-15.8" font-family="Times,serif" font-size="14.00">machinelearning</text>
</g>
<g id="clust7" class="cluster">
<title>cluster_serial</title><style>.edge>path:hover{stroke-width:8}</style>
<polygon fill="none" stroke="black" points="678,-195.98 678,-270.98 748,-270.98 748,-195.98 678,-195.98"/>
<text text-anchor="middle" x="713" y="-203.78" font-family="Times,serif" font-size="14.00">serial</text>
</g>
<g id="clust8" class="cluster">
<title>cluster_tinyg</title><style>.edge>path:hover{stroke-width:8}</style>
<polygon fill="none" stroke="black" points="741,-18.99 741,-93.99 911,-93.99 911,-18.99 741,-18.99"/>
<text text-anchor="middle" x="826" y="-26.79" font-family="Times,serif" font-size="14.00">tinyg</text>
</g>
<!-- control_functions -->
<g id="node1" class="node">
<title>control_functions</title><style>.edge>path:hover{stroke-width:8}</style>
<ellipse fill="#c09540" stroke="black" cx="336" cy="-161.98" rx="59.41" ry="18"/>
<text text-anchor="middle" x="336" y="-159.48" font-family="Helvetica,sans-Serif" font-size="10.00" fill="#000000">control_functions</text>
</g>
<!-- loop_functions -->
<g id="node5" class="node">
<title>loop_functions</title><style>.edge>path:hover{stroke-width:8}</style>
<ellipse fill="#3883a8" stroke="black" cx="458" cy="-244.98" rx="51.61" ry="18"/>
<text text-anchor="middle" x="458" y="-242.48" font-family="Helvetica,sans-Serif" font-size="10.00" fill="#ffffff">loop_functions</text>
</g>
<!-- control_functions&#45;&gt;loop_functions -->
<g id="edge2" class="edge">
<title>control_functions&#45;&gt;loop_functions</title><style>.edge>path:hover{stroke-width:8}</style>
<path fill="none" stroke="black" d="M373.65,-187.98C378.7,-191.33 383.99,-194.85 389.36,-198.41"/>
<polygon fill="#000000" stroke="black" points="387.74,-201.53 398,-204.15 391.61,-195.7 387.74,-201.53"/>
</g>
<!-- Control -->
<g id="node13" class="node">
<title>Control</title><style>.edge>path:hover{stroke-width:8}</style>
<ellipse fill="#8f3d3d" stroke="black" cx="576" cy="-316.98" rx="30.72" ry="18"/>
<text text-anchor="middle" x="576" y="-314.48" font-family="Helvetica,sans-Serif" font-size="10.00" fill="#ffffff">Control</text>
</g>
<!-- control_functions&#45;&gt;Control -->
<g id="edge1" class="edge">
<title>control_functions&#45;&gt;Control</title><style>.edge>path:hover{stroke-width:8}</style>
<path fill="none" stroke="black" d="M342.88,-187.98C351.01,-212.77 366.97,-250 394,-270.98 434.95,-302.77 495.39,-312.43 535.22,-315.18"/>
<polygon fill="#000000" stroke="black" points="535.19,-318.68 545.38,-315.76 535.59,-311.7 535.19,-318.68"/>
</g>
<!-- cv2 -->
<g id="node2" class="node">
<title>cv2</title><style>.edge>path:hover{stroke-width:8}</style>
<ellipse fill="#a2e619" stroke="black" cx="43" cy="-67.99" rx="27" ry="18"/>
<text text-anchor="middle" x="43" y="-65.49" font-family="Helvetica,sans-Serif" font-size="10.00" fill="#000000">cv2</text>
</g>
<!-- cv2&#45;&gt;control_functions -->
<g id="edge3" class="edge">
<title>cv2&#45;&gt;control_functions</title><style>.edge>path:hover{stroke-width:8}</style>
<path fill="none" stroke="black" d="M66.18,-93.99C71.06,-98.16 76.43,-102.08 82,-104.98 140.76,-135.66 215.64,-149.57 268.84,-155.85"/>
<polygon fill="#000000" stroke="black" points="258.97,-152.55 269,-155.97 263.29,-147.05 258.97,-152.55"/>
</g>
<!-- get_chip_img -->
<g id="node3" class="node">
<title>get_chip_img</title><style>.edge>path:hover{stroke-width:8}</style>
<ellipse fill="#35a135" stroke="black" cx="614" cy="-244.98" rx="48.04" ry="18"/>
<text text-anchor="middle" x="614" y="-242.48" font-family="Helvetica,sans-Serif" font-size="10.00" fill="#ffffff">get_chip_img</text>
</g>
<!-- cv2&#45;&gt;get_chip_img -->
<g id="edge4" class="edge">
<title>cv2&#45;&gt;get_chip_img</title><style>.edge>path:hover{stroke-width:8}</style>
<path fill="none" stroke="black" d="M64.66,-93.99C69.85,-98.45 75.73,-102.48 82,-104.98 95.23,-110.27 584.3,-103.57 595,-112.98 615.19,-130.73 620.9,-159.62 621.14,-185.76"/>
<polygon fill="#000000" stroke="black" points="617.64,-185.93 620.97,-195.99 624.63,-186.05 617.64,-185.93"/>
</g>
<!-- cv2&#45;&gt;loop_functions -->
<g id="edge5" class="edge">
<title>cv2&#45;&gt;loop_functions</title><style>.edge>path:hover{stroke-width:8}</style>
<path fill="none" stroke="black" d="M64.73,-93.99C69.91,-98.44 75.76,-102.46 82,-104.98 98.74,-111.76 392.22,-102.61 407,-112.98 430.76,-129.66 443.45,-159.13 450.23,-185.89"/>
<polygon fill="#000000" stroke="black" points="446.9,-187.02 452.55,-195.99 453.72,-185.46 446.9,-187.02"/>
</g>
<!-- get_chip_img&#45;&gt;Control -->
<g id="edge6" class="edge">
<title>get_chip_img&#45;&gt;Control</title><style>.edge>path:hover{stroke-width:8}</style>
<path fill="none" stroke="black" d="M600.43,-270.98C596.93,-277.44 593.15,-284.39 589.64,-290.85"/>
<polygon fill="#000000" stroke="black" points="586.55,-289.22 584.85,-299.68 592.7,-292.56 586.55,-289.22"/>
</g>
<!-- helperscripts -->
<g id="node4" class="node">
<title>helperscripts</title><style>.edge>path:hover{stroke-width:8}</style>
<ellipse fill="#47c299" stroke="black" cx="536" cy="-161.98" rx="47.19" ry="18"/>
<text text-anchor="middle" x="536" y="-159.48" font-family="Helvetica,sans-Serif" font-size="10.00" fill="#000000">helperscripts</text>
</g>
<!-- helperscripts&#45;&gt;loop_functions -->
<g id="edge8" class="edge">
<title>helperscripts&#45;&gt;loop_functions</title><style>.edge>path:hover{stroke-width:8}</style>
<path fill="none" stroke="black" d="M511.93,-187.98C511.72,-188.2 511.51,-188.41 511.3,-188.63"/>
<polygon fill="#000000" stroke="black" points="508.64,-186.35 504.22,-195.98 513.68,-191.21 508.64,-186.35"/>
</g>
<!-- helperscripts&#45;&gt;Control -->
<g id="edge7" class="edge">
<title>helperscripts&#45;&gt;Control</title><style>.edge>path:hover{stroke-width:8}</style>
<path fill="none" stroke="black" d="M538.1,-187.98C540.44,-210.19 545.14,-243.31 554,-270.98 556.09,-277.5 558.97,-284.27 561.97,-290.52"/>
<polygon fill="#000000" stroke="black" points="559.02,-292.45 566.66,-299.79 565.27,-289.29 559.02,-292.45"/>
</g>
<!-- loop_functions&#45;&gt;Control -->
<g id="edge9" class="edge">
<title>loop_functions&#45;&gt;Control</title><style>.edge>path:hover{stroke-width:8}</style>
<path fill="none" stroke="black" d="M500.13,-270.98C515.36,-280.01 532.21,-290.01 546.17,-298.28"/>
<polygon fill="#000000" stroke="black" points="544.57,-301.41 554.95,-303.5 548.14,-295.39 544.57,-301.41"/>
</g>
<!-- machine_learning -->
<g id="node6" class="node">
<title>machine_learning</title><style>.edge>path:hover{stroke-width:8}</style>
<ellipse fill="#5353b6" stroke="black" cx="494" cy="-67.99" rx="61.44" ry="18"/>
<text text-anchor="middle" x="494" y="-65.49" font-family="Helvetica,sans-Serif" font-size="10.00" fill="#ffffff">machine_learning</text>
</g>
<!-- machine_learning&#45;&gt;loop_functions -->
<g id="edge10" class="edge">
<title>machine_learning&#45;&gt;loop_functions</title><style>.edge>path:hover{stroke-width:8}</style>
<path fill="none" stroke="black" d="M478.43,-104.98C477.53,-107.66 476.71,-110.35 476,-112.98 469.68,-136.5 465.51,-163.03 462.79,-186.03"/>
<polygon fill="#000000" stroke="black" points="459.31,-185.66 461.67,-195.98 466.26,-186.44 459.31,-185.66"/>
</g>
<!-- machine_learning_Nano_yolo -->
<g id="node7" class="node">
<title>machine_learning_Nano_yolo</title><style>.edge>path:hover{stroke-width:8}</style>
<ellipse fill="#5353b6" stroke="black" cx="649" cy="-67.99" rx="75.82" ry="21.43"/>
<text text-anchor="middle" x="649" y="-70.99" font-family="Helvetica,sans-Serif" font-size="10.00" fill="#ffffff">machine_learning.</text>
<text text-anchor="middle" x="649" y="-59.99" font-family="Helvetica,sans-Serif" font-size="10.00" fill="#ffffff">Nano_yolo</text>
</g>
<!-- machine_learning_Nano_yolo&#45;&gt;get_chip_img -->
<g id="edge11" class="edge">
<title>machine_learning_Nano_yolo&#45;&gt;get_chip_img</title><style>.edge>path:hover{stroke-width:8}</style>
<path fill="none" stroke="black" d="M641.8,-104.98C637.14,-128.28 630.97,-159.16 625.62,-185.89"/>
<polygon fill="#000000" stroke="black" points="622.13,-185.49 623.6,-195.99 628.99,-186.87 622.13,-185.49"/>
</g>
<!-- machine_learning_image_methods -->
<g id="node8" class="node">
<title>machine_learning_image_methods</title><style>.edge>path:hover{stroke-width:8}</style>
<ellipse fill="#5353b6" stroke="black" cx="339" cy="-67.99" rx="75.82" ry="21.43"/>
<text text-anchor="middle" x="339" y="-70.99" font-family="Helvetica,sans-Serif" font-size="10.00" fill="#ffffff">machine_learning.</text>
<text text-anchor="middle" x="339" y="-59.99" font-family="Helvetica,sans-Serif" font-size="10.00" fill="#ffffff">image_methods</text>
</g>
<!-- machine_learning_yolo_ml_yolov5 -->
<g id="node9" class="node">
<title>machine_learning_yolo_ml_yolov5</title><style>.edge>path:hover{stroke-width:8}</style>
<ellipse fill="#5353b6" stroke="black" cx="170" cy="-67.99" rx="75.82" ry="28.98"/>
<text text-anchor="middle" x="170" y="-76.49" font-family="Helvetica,sans-Serif" font-size="10.00" fill="#ffffff">machine_learning.</text>
<text text-anchor="middle" x="170" y="-65.49" font-family="Helvetica,sans-Serif" font-size="10.00" fill="#ffffff">yolo_ml.</text>
<text text-anchor="middle" x="170" y="-54.49" font-family="Helvetica,sans-Serif" font-size="10.00" fill="#ffffff">yolov5</text>
</g>
<!-- serial -->
<g id="node10" class="node">
<title>serial</title><style>.edge>path:hover{stroke-width:8}</style>
<ellipse fill="#9540c0" stroke="black" cx="713" cy="-244.98" rx="27" ry="18"/>
<text text-anchor="middle" x="713" y="-242.48" font-family="Helvetica,sans-Serif" font-size="10.00" fill="#ffffff">serial</text>
</g>
<!-- serial&#45;&gt;Control -->
<g id="edge12" class="edge">
<title>serial&#45;&gt;Control</title><style>.edge>path:hover{stroke-width:8}</style>
<path fill="none" stroke="black" d="M678,-268.74C676.66,-269.51 675.32,-270.26 674,-270.98 653.2,-282.35 629,-293.48 609.86,-301.83"/>
<polygon fill="#000000" stroke="black" points="608.42,-298.64 600.63,-305.81 611.2,-305.06 608.42,-298.64"/>
</g>
<!-- tinyg -->
<g id="node11" class="node">
<title>tinyg</title><style>.edge>path:hover{stroke-width:8}</style>
<ellipse fill="#b65395" stroke="black" cx="876" cy="-67.99" rx="27" ry="18"/>
<text text-anchor="middle" x="876" y="-65.49" font-family="Helvetica,sans-Serif" font-size="10.00" fill="#ffffff">tinyg</text>
</g>
<!-- tinyg&#45;&gt;Control -->
<g id="edge13" class="edge">
<title>tinyg&#45;&gt;Control</title><style>.edge>path:hover{stroke-width:8}</style>
<path fill="none" stroke="black" d="M867.75,-93.99C852.23,-137.02 814.49,-224.91 752,-270.98 712.21,-300.32 655.15,-310.6 616.9,-314.16"/>
<polygon fill="#000000" stroke="black" points="616.32,-310.7 606.64,-315 616.89,-317.68 616.32,-310.7"/>
</g>
<!-- tinyg_tinyg -->
<g id="node12" class="node">
<title>tinyg_tinyg</title><style>.edge>path:hover{stroke-width:8}</style>
<ellipse fill="#b65395" stroke="black" cx="790" cy="-67.99" rx="40.74" ry="18"/>
<text text-anchor="middle" x="790" y="-65.49" font-family="Helvetica,sans-Serif" font-size="10.00" fill="#ffffff">tinyg.tinyg</text>
</g>
<!-- tinyg_tinyg&#45;&gt;get_chip_img -->
<g id="edge14" class="edge">
<title>tinyg_tinyg&#45;&gt;get_chip_img</title><style>.edge>path:hover{stroke-width:8}</style>
<path fill="none" stroke="black" d="M764.86,-93.99C740.08,-118.62 701.4,-157.08 669.41,-188.89"/>
<polygon fill="#000000" stroke="black" points="666.9,-186.45 662.27,-195.99 671.83,-191.42 666.9,-186.45"/>
</g>
</g>
</svg>
